<svg xmlns="http://www.w3.org/2000/svg" width="512" height="512" viewBox="0 0 512 512">
  <defs>
    <linearGradient id="gb" gradientUnits="userSpaceOnUse" x1="86" y1="112" x2="422" y2="448">
      <stop offset="0" stop-color="#60A5FA"/>
      <stop offset="0.55" stop-color="#2563EB"/>
      <stop offset="1" stop-color="#1E3A8A"/>
    </linearGradient>
    <linearGradient id="gg" gradientUnits="objectBoundingBox" x1="0" y1="0" x2="1" y2="1">
      <stop offset="0" stop-color="#4ADE80"/>
      <stop offset="1" stop-color="#22C55E"/>
    </linearGradient>
  </defs>

  <g fill="url(#gb)">
    <rect x="86"  y="112" width="96" height="96" rx="20"/>
    <rect x="206" y="112" width="96" height="96" rx="20"/>
    <rect x="86"  y="232" width="96" height="96" rx="20"/>
    <rect x="206" y="232" width="96" height="96" rx="20"/>
    <rect x="326" y="232" width="96" height="96" rx="20"/>
    <rect x="86"  y="352" width="96" height="96" rx="20"/>
    <rect x="206" y="352" width="96" height="96" rx="20"/>
    <rect x="326" y="352" width="96" height="96" rx="20"/>
  </g>

  <rect x="328.5" y="114.5" width="91" height="91" rx="18"
        fill="none" stroke="#8FA3C4" stroke-width="5" stroke-dasharray="16 13" stroke-linecap="round"/>

  <g transform="rotate(10 408 102)">
    <rect x="360" y="54" width="96" height="96" rx="20" fill="url(#gg)"/>
  </g>
</svg>
